<?xml version="1.0" encoding="ISO-8859-1" standalone="no"?>
<!DOCTYPE svg PUBLIC "-//W3C//DTD SVG 20000303 Stylable//EN"
"http://www.w3.org/TR/2000/03/WD-SVG-20000303/DTD/svg-20000303-stylable.dtd">
<svg width="8in" height="8in" viewBox="0 0 1 1" preserveAspectRatio="none">
<title>SVG drawing</title>
<desc>This was produced by version 4.1 of GNU libplot, a free library for exporting 2-D vector graphics.</desc>
<rect x="0" y="0" width="1" height="1" style="stroke:none;fill:white;"/>
<g transform="translate(0,1) scale(1,-1) scale(0.00024414) " xml:space="preserve" style="stroke:black;stroke-linecap:butt;stroke-linejoin:miter;stroke-miterlimit:10.433;stroke-dasharray:none;stroke-dashoffset:0;stroke-opacity:1;fill:none;fill-rule:even-odd;fill-opacity:1;font-style:normal;font-variant:normal;font-weight:normal;font-stretch:normal;font-size-adjust:none;letter-spacing:normal;word-spacing:normal;text-anchor:start;">
<text transform="translate(2048,3413.2) scale(1,-1) " style="font-family:'Helvetica',sans-serif;font-size:172.03;text-anchor:middle;baseline-identifier:text-bottom;stroke:none;fill:black;">Pressure over the last 12 hours</text>
<rect x="819.2" y="819.2" width="2457.6" height="2457.6" style="stroke-width:4.8188;"/>
<text transform="translate(819.2,782.34) scale(1,-1) " style="font-family:'Helvetica',sans-serif;font-size:129.02;text-anchor:middle;baseline-identifier:text-top;stroke:none;fill:black;">17.0</text>
<line x1="819.2" y1="3276.8" x2="819.2" y2="3227.6" style="stroke-width:4.8188;"/>
<line x1="819.2" y1="819.2" x2="819.2" y2="868.35" style="stroke-width:4.8188;"/>
<text transform="translate(1433.6,782.34) scale(1,-1) " style="font-family:'Helvetica',sans-serif;font-size:129.02;text-anchor:middle;baseline-identifier:text-top;stroke:none;fill:black;">17.2</text>
<line x1="1433.6" y1="3276.8" x2="1433.6" y2="3227.6" style="stroke-width:4.8188;"/>
<line x1="1433.6" y1="819.2" x2="1433.6" y2="868.35" style="stroke-width:4.8188;"/>
<text transform="translate(2048,782.34) scale(1,-1) " style="font-family:'Helvetica',sans-serif;font-size:129.02;text-anchor:middle;baseline-identifier:text-top;stroke:none;fill:black;">17.4</text>
<line x1="2048" y1="3276.8" x2="2048" y2="3227.6" style="stroke-width:4.8188;"/>
<line x1="2048" y1="819.2" x2="2048" y2="868.35" style="stroke-width:4.8188;"/>
<text transform="translate(2662.4,782.34) scale(1,-1) " style="font-family:'Helvetica',sans-serif;font-size:129.02;text-anchor:middle;baseline-identifier:text-top;stroke:none;fill:black;">17.6</text>
<line x1="2662.4" y1="3276.8" x2="2662.4" y2="3227.6" style="stroke-width:4.8188;"/>
<line x1="2662.4" y1="819.2" x2="2662.4" y2="868.35" style="stroke-width:4.8188;"/>
<text transform="translate(3276.8,782.34) scale(1,-1) " style="font-family:'Helvetica',sans-serif;font-size:129.02;text-anchor:middle;baseline-identifier:text-top;stroke:none;fill:black;">17.8</text>
<line x1="3276.8" y1="3276.8" x2="3276.8" y2="3227.6" style="stroke-width:4.8188;"/>
<line x1="3276.8" y1="819.2" x2="3276.8" y2="868.35" style="stroke-width:4.8188;"/>
<line x1="819.2" y1="3276.8" x2="819.2" y2="3257.1" style="stroke-width:4.8188;"/>
<line x1="819.2" y1="819.2" x2="819.2" y2="838.86" style="stroke-width:4.8188;"/>
<line x1="1126.4" y1="3276.8" x2="1126.4" y2="3257.1" style="stroke-width:4.8188;"/>
<line x1="1126.4" y1="819.2" x2="1126.4" y2="838.86" style="stroke-width:4.8188;"/>
<line x1="1433.6" y1="3276.8" x2="1433.6" y2="3257.1" style="stroke-width:4.8188;"/>
<line x1="1433.6" y1="819.2" x2="1433.6" y2="838.86" style="stroke-width:4.8188;"/>
<line x1="1740.8" y1="3276.8" x2="1740.8" y2="3257.1" style="stroke-width:4.8188;"/>
<line x1="1740.8" y1="819.2" x2="1740.8" y2="838.86" style="stroke-width:4.8188;"/>
<line x1="2048" y1="3276.8" x2="2048" y2="3257.1" style="stroke-width:4.8188;"/>
<line x1="2048" y1="819.2" x2="2048" y2="838.86" style="stroke-width:4.8188;"/>
<line x1="2355.2" y1="3276.8" x2="2355.2" y2="3257.1" style="stroke-width:4.8188;"/>
<line x1="2355.2" y1="819.2" x2="2355.2" y2="838.86" style="stroke-width:4.8188;"/>
<line x1="2662.4" y1="3276.8" x2="2662.4" y2="3257.1" style="stroke-width:4.8188;"/>
<line x1="2662.4" y1="819.2" x2="2662.4" y2="838.86" style="stroke-width:4.8188;"/>
<line x1="2969.6" y1="3276.8" x2="2969.6" y2="3257.1" style="stroke-width:4.8188;"/>
<line x1="2969.6" y1="819.2" x2="2969.6" y2="838.86" style="stroke-width:4.8188;"/>
<line x1="3276.8" y1="3276.8" x2="3276.8" y2="3257.1" style="stroke-width:4.8188;"/>
<line x1="3276.8" y1="819.2" x2="3276.8" y2="838.86" style="stroke-width:4.8188;"/>
<text transform="translate(782.34,906.97) scale(1,-1) " style="font-family:'Helvetica',sans-serif;font-size:129.02;text-anchor:end;baseline-identifier:centerline;stroke:none;fill:black;">29.85</text>
<line x1="3276.8" y1="906.97" x2="3227.6" y2="906.97" style="stroke-width:4.8188;"/>
<line x1="819.2" y1="906.97" x2="868.35" y2="906.97" style="stroke-width:4.8188;"/>
<text transform="translate(782.34,1170.3) scale(1,-1) " style="font-family:'Helvetica',sans-serif;font-size:129.02;text-anchor:end;baseline-identifier:centerline;stroke:none;fill:black;">29.88</text>
<line x1="3276.8" y1="1170.3" x2="3227.6" y2="1170.3" style="stroke-width:4.8188;"/>
<line x1="819.2" y1="1170.3" x2="868.35" y2="1170.3" style="stroke-width:4.8188;"/>
<text transform="translate(782.34,1433.6) scale(1,-1) " style="font-family:'Helvetica',sans-serif;font-size:129.02;text-anchor:end;baseline-identifier:centerline;stroke:none;fill:black;">29.91</text>
<line x1="3276.8" y1="1433.6" x2="3227.6" y2="1433.6" style="stroke-width:4.8188;"/>
<line x1="819.2" y1="1433.6" x2="868.35" y2="1433.6" style="stroke-width:4.8188;"/>
<text transform="translate(782.34,1696.9) scale(1,-1) " style="font-family:'Helvetica',sans-serif;font-size:129.02;text-anchor:end;baseline-identifier:centerline;stroke:none;fill:black;">29.94</text>
<line x1="3276.8" y1="1696.9" x2="3227.6" y2="1696.9" style="stroke-width:4.8188;"/>
<line x1="819.2" y1="1696.9" x2="868.35" y2="1696.9" style="stroke-width:4.8188;"/>
<text transform="translate(782.34,1960.2) scale(1,-1) " style="font-family:'Helvetica',sans-serif;font-size:129.02;text-anchor:end;baseline-identifier:centerline;stroke:none;fill:black;">29.97</text>
<line x1="3276.8" y1="1960.2" x2="3227.6" y2="1960.2" style="stroke-width:4.8188;"/>
<line x1="819.2" y1="1960.2" x2="868.35" y2="1960.2" style="stroke-width:4.8188;"/>
<text transform="translate(782.34,2223.5) scale(1,-1) " style="font-family:'Helvetica',sans-serif;font-size:129.02;text-anchor:end;baseline-identifier:centerline;stroke:none;fill:black;">30.00</text>
<line x1="3276.8" y1="2223.5" x2="3227.6" y2="2223.5" style="stroke-width:4.8188;"/>
<line x1="819.2" y1="2223.5" x2="868.35" y2="2223.5" style="stroke-width:4.8188;"/>
<text transform="translate(782.34,2486.9) scale(1,-1) " style="font-family:'Helvetica',sans-serif;font-size:129.02;text-anchor:end;baseline-identifier:centerline;stroke:none;fill:black;">30.03</text>
<line x1="3276.8" y1="2486.9" x2="3227.6" y2="2486.9" style="stroke-width:4.8188;"/>
<line x1="819.2" y1="2486.9" x2="868.35" y2="2486.9" style="stroke-width:4.8188;"/>
<text transform="translate(782.34,2750.2) scale(1,-1) " style="font-family:'Helvetica',sans-serif;font-size:129.02;text-anchor:end;baseline-identifier:centerline;stroke:none;fill:black;">30.06</text>
<line x1="3276.8" y1="2750.2" x2="3227.6" y2="2750.2" style="stroke-width:4.8188;"/>
<line x1="819.2" y1="2750.2" x2="868.35" y2="2750.2" style="stroke-width:4.8188;"/>
<text transform="translate(782.34,3013.5) scale(1,-1) " style="font-family:'Helvetica',sans-serif;font-size:129.02;text-anchor:end;baseline-identifier:centerline;stroke:none;fill:black;">30.09</text>
<line x1="3276.8" y1="3013.5" x2="3227.6" y2="3013.5" style="stroke-width:4.8188;"/>
<line x1="819.2" y1="3013.5" x2="868.35" y2="3013.5" style="stroke-width:4.8188;"/>
<text transform="translate(782.34,3276.8) scale(1,-1) " style="font-family:'Helvetica',sans-serif;font-size:129.02;text-anchor:end;baseline-identifier:centerline;stroke:none;fill:black;">30.12</text>
<line x1="3276.8" y1="3276.8" x2="3227.6" y2="3276.8" style="stroke-width:4.8188;"/>
<line x1="819.2" y1="3276.8" x2="868.35" y2="3276.8" style="stroke-width:4.8188;"/>
<text transform="translate(2048,621.36) scale(1,-1) " style="font-family:'Helvetica',sans-serif;font-size:129.02;text-anchor:middle;baseline-identifier:text-top;stroke:none;fill:black;">Time</text>
<text transform="translate(346.58,2048) rotate(90) scale(1,-1) " style="font-family:'Helvetica',sans-serif;font-size:129.02;text-anchor:middle;stroke:none;fill:black;">Pressure</text>
<polyline points="942.08,3013.5 1065,2837.9 1187.8,2662.4 1310.7,2486.9 1433.6,2399.1 1556.5,2311.3 1679.4,2223.5 1802.2,2311.3 1925.1,2135.8 2048,2135.8 2170.9,2135.8 2293.8,2135.8 2416.6,2048 2539.5,1960.2 2662.4,1784.7 2785.3,1521.4 2908.2,1521.4 3031,1258.1 3153.9,1082.5 3276.8,1082.5 " style="stroke-width:4.8188;"/>
</g>
</svg>
