<?xml version="1.0" encoding="ISO-8859-1" standalone="no"?>
<!DOCTYPE svg PUBLIC "-//W3C//DTD SVG 20000303 Stylable//EN"
"http://www.w3.org/TR/2000/03/WD-SVG-20000303/DTD/svg-20000303-stylable.dtd">
<svg width="640" height="480" viewBox="0 0 1 1" preserveAspectRatio="none">
<title>SVG drawing</title>
<desc>This was produced by version 4.1 of GNU libplot, a free library for exporting 2-D vector graphics.</desc>
<rect x="0" y="0" width="1" height="1" style="stroke:none;fill:white;"/>
<g transform="translate(0,1) scale(1,-1) scale(0.00024414) " xml:space="preserve" style="stroke:black;stroke-linecap:butt;stroke-linejoin:miter;stroke-miterlimit:10.433;stroke-dasharray:none;stroke-dashoffset:0;stroke-opacity:1;fill:none;fill-rule:even-odd;fill-opacity:1;font-style:normal;font-variant:normal;font-weight:normal;font-stretch:normal;font-size-adjust:none;letter-spacing:normal;word-spacing:normal;text-anchor:start;">
<text transform="translate(2048,3413.2) scale(1,-1) " style="font-family:'Helvetica',sans-serif;font-size:172.03;text-anchor:middle;baseline-identifier:text-bottom;stroke:none;fill:black;">Temperature over the last 12 hours</text>
<rect x="819.2" y="819.2" width="2457.6" height="2457.6" style="stroke-width:4.8188;"/>
<text transform="translate(819.2,782.34) scale(1,-1) " style="font-family:'Helvetica',sans-serif;font-size:129.02;text-anchor:middle;baseline-identifier:text-top;stroke:none;fill:black;">17.0</text>
<line x1="819.2" y1="3276.8" x2="819.2" y2="3227.6" style="stroke-width:4.8188;"/>
<line x1="819.2" y1="819.2" x2="819.2" y2="868.35" style="stroke-width:4.8188;"/>
<text transform="translate(1433.6,782.34) scale(1,-1) " style="font-family:'Helvetica',sans-serif;font-size:129.02;text-anchor:middle;baseline-identifier:text-top;stroke:none;fill:black;">17.2</text>
<line x1="1433.6" y1="3276.8" x2="1433.6" y2="3227.6" style="stroke-width:4.8188;"/>
<line x1="1433.6" y1="819.2" x2="1433.6" y2="868.35" style="stroke-width:4.8188;"/>
<text transform="translate(2048,782.34) scale(1,-1) " style="font-family:'Helvetica',sans-serif;font-size:129.02;text-anchor:middle;baseline-identifier:text-top;stroke:none;fill:black;">17.4</text>
<line x1="2048" y1="3276.8" x2="2048" y2="3227.6" style="stroke-width:4.8188;"/>
<line x1="2048" y1="819.2" x2="2048" y2="868.35" style="stroke-width:4.8188;"/>
<text transform="translate(2662.4,782.34) scale(1,-1) " style="font-family:'Helvetica',sans-serif;font-size:129.02;text-anchor:middle;baseline-identifier:text-top;stroke:none;fill:black;">17.6</text>
<line x1="2662.4" y1="3276.8" x2="2662.4" y2="3227.6" style="stroke-width:4.8188;"/>
<line x1="2662.4" y1="819.2" x2="2662.4" y2="868.35" style="stroke-width:4.8188;"/>
<text transform="translate(3276.8,782.34) scale(1,-1) " style="font-family:'Helvetica',sans-serif;font-size:129.02;text-anchor:middle;baseline-identifier:text-top;stroke:none;fill:black;">17.8</text>
<line x1="3276.8" y1="3276.8" x2="3276.8" y2="3227.6" style="stroke-width:4.8188;"/>
<line x1="3276.8" y1="819.2" x2="3276.8" y2="868.35" style="stroke-width:4.8188;"/>
<line x1="819.2" y1="3276.8" x2="819.2" y2="3257.1" style="stroke-width:4.8188;"/>
<line x1="819.2" y1="819.2" x2="819.2" y2="838.86" style="stroke-width:4.8188;"/>
<line x1="1126.4" y1="3276.8" x2="1126.4" y2="3257.1" style="stroke-width:4.8188;"/>
<line x1="1126.4" y1="819.2" x2="1126.4" y2="838.86" style="stroke-width:4.8188;"/>
<line x1="1433.6" y1="3276.8" x2="1433.6" y2="3257.1" style="stroke-width:4.8188;"/>
<line x1="1433.6" y1="819.2" x2="1433.6" y2="838.86" style="stroke-width:4.8188;"/>
<line x1="1740.8" y1="3276.8" x2="1740.8" y2="3257.1" style="stroke-width:4.8188;"/>
<line x1="1740.8" y1="819.2" x2="1740.8" y2="838.86" style="stroke-width:4.8188;"/>
<line x1="2048" y1="3276.8" x2="2048" y2="3257.1" style="stroke-width:4.8188;"/>
<line x1="2048" y1="819.2" x2="2048" y2="838.86" style="stroke-width:4.8188;"/>
<line x1="2355.2" y1="3276.8" x2="2355.2" y2="3257.1" style="stroke-width:4.8188;"/>
<line x1="2355.2" y1="819.2" x2="2355.2" y2="838.86" style="stroke-width:4.8188;"/>
<line x1="2662.4" y1="3276.8" x2="2662.4" y2="3257.1" style="stroke-width:4.8188;"/>
<line x1="2662.4" y1="819.2" x2="2662.4" y2="838.86" style="stroke-width:4.8188;"/>
<line x1="2969.6" y1="3276.8" x2="2969.6" y2="3257.1" style="stroke-width:4.8188;"/>
<line x1="2969.6" y1="819.2" x2="2969.6" y2="838.86" style="stroke-width:4.8188;"/>
<line x1="3276.8" y1="3276.8" x2="3276.8" y2="3257.1" style="stroke-width:4.8188;"/>
<line x1="3276.8" y1="819.2" x2="3276.8" y2="838.86" style="stroke-width:4.8188;"/>
<text transform="translate(782.34,860.22) scale(1,-1) " style="font-family:'Helvetica',sans-serif;font-size:129.02;text-anchor:end;baseline-identifier:centerline;stroke:none;fill:black;">68.240</text>
<line x1="3276.8" y1="860.22" x2="3227.6" y2="860.22" style="stroke-width:4.8188;"/>
<line x1="819.2" y1="860.22" x2="868.35" y2="860.22" style="stroke-width:4.8188;"/>
<text transform="translate(782.34,1181.3) scale(1,-1) " style="font-family:'Helvetica',sans-serif;font-size:129.02;text-anchor:end;baseline-identifier:centerline;stroke:none;fill:black;">72.505</text>
<line x1="3276.8" y1="1181.3" x2="3227.6" y2="1181.3" style="stroke-width:4.8188;"/>
<line x1="819.2" y1="1181.3" x2="868.35" y2="1181.3" style="stroke-width:4.8188;"/>
<text transform="translate(782.34,1502.3) scale(1,-1) " style="font-family:'Helvetica',sans-serif;font-size:129.02;text-anchor:end;baseline-identifier:centerline;stroke:none;fill:black;">76.770</text>
<line x1="3276.8" y1="1502.3" x2="3227.6" y2="1502.3" style="stroke-width:4.8188;"/>
<line x1="819.2" y1="1502.3" x2="868.35" y2="1502.3" style="stroke-width:4.8188;"/>
<text transform="translate(782.34,1823.3) scale(1,-1) " style="font-family:'Helvetica',sans-serif;font-size:129.02;text-anchor:end;baseline-identifier:centerline;stroke:none;fill:black;">81.035</text>
<line x1="3276.8" y1="1823.3" x2="3227.6" y2="1823.3" style="stroke-width:4.8188;"/>
<line x1="819.2" y1="1823.3" x2="868.35" y2="1823.3" style="stroke-width:4.8188;"/>
<text transform="translate(782.34,2144.3) scale(1,-1) " style="font-family:'Helvetica',sans-serif;font-size:129.02;text-anchor:end;baseline-identifier:centerline;stroke:none;fill:black;">85.300</text>
<line x1="3276.8" y1="2144.3" x2="3227.6" y2="2144.3" style="stroke-width:4.8188;"/>
<line x1="819.2" y1="2144.3" x2="868.35" y2="2144.3" style="stroke-width:4.8188;"/>
<text transform="translate(782.34,2465.4) scale(1,-1) " style="font-family:'Helvetica',sans-serif;font-size:129.02;text-anchor:end;baseline-identifier:centerline;stroke:none;fill:black;">89.565</text>
<line x1="3276.8" y1="2465.4" x2="3227.6" y2="2465.4" style="stroke-width:4.8188;"/>
<line x1="819.2" y1="2465.4" x2="868.35" y2="2465.4" style="stroke-width:4.8188;"/>
<text transform="translate(782.34,2786.4) scale(1,-1) " style="font-family:'Helvetica',sans-serif;font-size:129.02;text-anchor:end;baseline-identifier:centerline;stroke:none;fill:black;">93.830</text>
<line x1="3276.8" y1="2786.4" x2="3227.6" y2="2786.4" style="stroke-width:4.8188;"/>
<line x1="819.2" y1="2786.4" x2="868.35" y2="2786.4" style="stroke-width:4.8188;"/>
<text transform="translate(782.34,3107.4) scale(1,-1) " style="font-family:'Helvetica',sans-serif;font-size:129.02;text-anchor:end;baseline-identifier:centerline;stroke:none;fill:black;">98.095</text>
<line x1="3276.8" y1="3107.4" x2="3227.6" y2="3107.4" style="stroke-width:4.8188;"/>
<line x1="819.2" y1="3107.4" x2="868.35" y2="3107.4" style="stroke-width:4.8188;"/>
<text transform="translate(2048,621.36) scale(1,-1) " style="font-family:'Helvetica',sans-serif;font-size:129.02;text-anchor:middle;baseline-identifier:text-top;stroke:none;fill:black;">Time</text>
<text transform="translate(264.09,2048) rotate(90) scale(1,-1) " style="font-family:'Helvetica',sans-serif;font-size:129.02;text-anchor:middle;stroke:none;fill:black;">Temperature</text>
<polyline points="942.08,1519.6 1065,1438.3 1187.8,1289.3 1310.7,1221.5 1433.6,1140.2 1556.5,1140.2 1679.4,1248.6 1802.2,1289.3 1925.1,1926.1 2048,1926.1 2170.9,2197 2293.8,2346.1 2416.6,2576.4 2539.5,2725.4 2662.4,2874.5 2785.3,2955.8 2908.2,2725.4 3031,2576.4 3153.9,2495.1 3276.8,2495.1 " style="stroke-width:4.8188;"/>
</g>
</svg>
